HIERARCHY
ROOT ROOT
{
	OFFSET 0.000000 56.020000 -5.659234
	CHANNELS 6 Xposition Yposition Zposition Xrotation Yrotation Zrotation 
	JOINT C_spine0001_bind_JNT
	{
		OFFSET 0.000000 1.618999 0.000000
		CHANNELS 3 Xrotation Yrotation Zrotation
		JOINT C_spine0002_bind_JNT
		{
			OFFSET 0.000000 4.942001 0.000001
			CHANNELS 3 Xrotation Yrotation Zrotation
			JOINT C_spine0003_bind_JNT
			{
				OFFSET 0.000000 4.942001 -0.000000
				CHANNELS 3 Xrotation Yrotation Zrotation
				JOINT C_neck0001_bind_JNT
				{
					OFFSET 0.000000 17.026009 -0.000000
					CHANNELS 3 Xrotation Yrotation Zrotation
					JOINT C_neck0002_bind_JNT
					{
						OFFSET 0.000000 3.249985 0.000000
						CHANNELS 3 Xrotation Yrotation Zrotation
						JOINT C_head_bind_JNT
						{
							OFFSET 0.000000 5.278008 0.000000
							CHANNELS 3 Xrotation Yrotation Zrotation
							End Site
							{
								OFFSET 0.000000 0.000000 0.000000
							}
						}
					}
				}
				JOINT L_clavicle_bind_JNT
				{
					OFFSET 4.590000 12.067001 0.834000
					CHANNELS 3 Xrotation Yrotation Zrotation
					JOINT L_armUpper0001_bind_JNT
					{
						OFFSET 7.812635 0.512001 -3.452945
						CHANNELS 3 Xrotation Yrotation Zrotation
						JOINT L_armLower0001_bind_JNT
						{
							OFFSET 15.265892 -6.552116 -0.058157
							CHANNELS 3 Xrotation Yrotation Zrotation
							JOINT L_hand0001_bind_JNT
							{
								OFFSET 14.747667 -6.369995 5.049225
								CHANNELS 3 Xrotation Yrotation Zrotation
								End Site
								{
									OFFSET 0.000000 0.000000 0.000000
								}
							}
						}
					}
				}
				JOINT R_clavicle_bind_JNT
				{
					OFFSET -4.590000 12.067001 0.834000
					CHANNELS 3 Xrotation Yrotation Zrotation
					JOINT R_armUpper0001_bind_JNT
					{
						OFFSET -7.812635 0.512001 -3.452945
						CHANNELS 3 Xrotation Yrotation Zrotation
						JOINT R_armLower0001_bind_JNT
						{
							OFFSET -15.265890 -6.552124 -0.058160
							CHANNELS 3 Xrotation Yrotation Zrotation
							JOINT R_hand0001_bind_JNT
							{
								OFFSET -14.746784 -6.369629 5.048937
								CHANNELS 3 Xrotation Yrotation Zrotation
								End Site
								{
									OFFSET 0.000000 0.000000 0.000000
								}
							}
						}
					}
				}
			}
		}
	}
	JOINT C_pelvis0001_bind_JNT
	{
		OFFSET -0.000000 0.000000 0.000000
		CHANNELS 3 Xrotation Yrotation Zrotation
		JOINT L_legUpper0001_bind_JNT
		{
			OFFSET 6.599999 -6.027000 0.539000
			CHANNELS 3 Xrotation Yrotation Zrotation
			JOINT L_legLower0001_bind_JNT
			{
				OFFSET -0.140713 -19.187443 0.040261
				CHANNELS 3 Xrotation Yrotation Zrotation
				JOINT L_foot0001_bind_JNT
				{
					OFFSET -0.132215 -18.028637 -1.138370
					CHANNELS 3 Xrotation Yrotation Zrotation
					JOINT L_foot0002_bind_JNT
					{
						OFFSET 0.007014 -4.693133 9.886524
						CHANNELS 3 Xrotation Yrotation Zrotation
						End Site
						{
							OFFSET 0.000000 0.000000 0.000000
						}
					}
				}
			}
		}
		JOINT R_legUpper0001_bind_JNT
		{
			OFFSET -6.599999 -6.027000 0.539000
			CHANNELS 3 Xrotation Yrotation Zrotation
			JOINT R_legLower0001_bind_JNT
			{
				OFFSET 0.140710 -19.187164 0.040550
				CHANNELS 3 Xrotation Yrotation Zrotation
				JOINT R_foot0001_bind_JNT
				{
					OFFSET 0.132215 -18.028633 -1.138362
					CHANNELS 3 Xrotation Yrotation Zrotation
					JOINT R_foot0002_bind_JNT
					{
						OFFSET -0.007014 -4.693128 9.886505
						CHANNELS 3 Xrotation Yrotation Zrotation
						End Site
						{
							OFFSET 0.000000 0.000000 0.000000
						}
					}
				}
			}
		}
	}
}
MOTION
Frames: 12
Frame Time: 0.033333
-3.393740 48.149776 60.892063 0.045615 -18.095795 -0.020894 15.625528 -4.103802 -3.606928 0.748171 0.760993 -0.629033 11.731098 0.634269 -1.347934 19.778288 0.109566 0.394724 -0.147120 -0.309725 -0.246873 -0.975823 1.060638 2.405838 3.261680 7.579267 7.632286 -27.596178 1.571658 -50.626686 -23.642790 -2.590730 -18.691921 -6.624260 -7.678082 -7.704320 3.748070 -5.283604 -5.756143 -34.489777 10.090765 53.786388 -18.447567 3.189399 9.451169 -1.125845 3.483839 10.991583 9.551010 -5.193363 -2.558312 -24.728615 4.361512 -3.728781 28.131060 -4.104234 1.394791 -9.431738 -0.001358 6.113245 -3.511173 -0.287195 1.120741 -35.791149 -4.578745 -0.224446 39.788654 0.657690 1.249455 -3.452360 2.397319 3.223836 -6.955400 0.546232 -0.277193
-3.842153 48.066330 61.543125 0.041172 -18.215322 -0.025257 15.566693 -4.094701 -3.695719 0.785307 0.739410 -0.629899 11.699742 0.634040 -1.357111 19.781971 0.083121 0.475514 -0.137056 -0.229079 -0.290365 -1.044151 0.946873 2.476386 3.421198 7.925944 7.928687 -27.905127 1.319150 -50.829334 -23.851240 -2.714343 -18.851080 -6.467947 -7.934169 -7.578359 4.083579 -5.488307 -5.911275 -34.742298 10.012554 54.011078 -18.344603 3.378930 9.206030 -1.153686 3.430092 11.111303 9.453660 -4.968956 -2.161417 -23.798126 3.761781 -4.130286 28.640135 -3.954621 1.339200 -10.509333 0.138828 6.121428 -3.621072 -0.424164 1.027532 -35.602413 -4.708974 -0.692436 34.780060 1.511927 0.904820 -1.565009 3.509761 3.894035 -5.796865 0.836408 -0.335086
-4.258619 48.035156 62.235023 0.047997 -18.346954 -0.020094 15.274976 -3.907464 -3.647989 0.815720 0.627568 -0.576964 11.667208 0.585586 -1.339489 19.758898 0.063735 0.437383 -0.158825 -0.193223 -0.288044 -0.923894 0.768576 2.530272 3.768541 8.320814 7.914200 -28.228104 1.129708 -50.862175 -23.906527 -3.083045 -18.665255 -6.316746 -7.698260 -7.721300 4.302759 -5.763627 -6.017528 -34.457314 10.007622 54.039497 -18.059074 3.508841 9.125009 -1.184484 3.796011 10.980978 9.291969 -4.649165 -2.004557 -22.675362 3.010749 -4.380368 28.749872 -3.760022 1.326349 -11.267173 -0.077166 6.033890 -3.848922 -0.398809 1.075915 -35.747322 -5.186397 -0.881494 31.334976 2.187370 0.879879 -1.056992 3.968584 4.334233 -4.213324 0.902543 -0.202177
-4.663556 47.999161 62.977898 0.043544 -18.265177 -0.019535 15.255923 -3.883854 -3.526153 0.671370 0.597835 -0.535403 11.565944 0.494456 -1.238805 19.808981 -0.044699 0.455705 -0.051642 -0.242409 -0.273784 -0.921790 0.738158 2.477687 3.964366 8.601806 7.723895 -28.174822 0.977074 -50.599731 -23.910522 -3.519196 -18.665297 -6.155563 -7.779316 -7.668198 4.514056 -6.119457 -6.205626 -33.963272 9.707971 54.028492 -17.932632 3.942646 8.871577 -1.027850 3.964127 11.098627 9.317077 -4.422479 -1.825699 -21.708342 2.304253 -4.652817 28.982014 -3.640366 1.311170 -12.027325 -0.238941 5.835505 -4.099510 -0.527451 1.282169 -36.150829 -5.814160 -1.017609 28.837883 2.518432 1.002678 -0.294673 4.402879 4.969433 -3.271507 1.044665 -0.309531
-5.046322 47.960640 63.665470 0.042502 -18.327944 -0.017972 15.075360 -3.741644 -3.409998 0.646535 0.472502 -0.505082 11.459394 0.507287 -1.266204 19.927811 -0.020137 0.555498 -0.134566 -0.225940 -0.370378 -0.829405 0.546600 2.523830 4.225179 8.916663 7.908070 -28.266136 0.938598 -50.573044 -23.637274 -3.858185 -18.508467 -5.998807 -7.874322 -7.721128 4.685762 -6.400219 -6.284955 -33.465923 9.556766 53.923740 -17.745255 4.050704 8.756721 -0.904918 4.145111 11.003703 9.171520 -4.108455 -1.696969 -20.594908 1.657361 -4.789286 28.937994 -3.583527 1.229189 -12.698303 -0.347557 5.651392 -4.218733 -0.740174 1.549139 -36.123962 -6.223083 -0.901133 26.973824 2.534997 1.322180 0.211156 4.692856 5.075177 -2.501531 0.953990 -0.204560
-5.384853 47.911163 64.321365 0.041750 -18.490141 -0.013008 14.958440 -3.374612 -3.313304 0.708533 0.454137 -0.412717 11.324512 0.388126 -1.232488 19.952217 -0.170093 0.532402 -0.132663 -0.188947 -0.325037 -0.723964 0.442534 2.516589 4.346854 9.276906 7.865427 -28.295418 0.763287 -50.420273 -23.456234 -4.096135 -18.311615 -5.588432 -7.946359 -7.801133 4.815760 -6.740693 -6.550900 -33.080437 9.287295 53.859539 -17.530972 4.052808 8.655970 -0.797738 4.462836 10.866058 9.200238 -3.685242 -1.575020 -19.717379 1.288456 -4.931343 29.026253 -3.528460 1.249245 -13.344940 -0.747477 5.255587 -4.335514 -0.968211 2.136534 -36.162739 -6.701788 -0.740176 25.598343 2.413630 1.499226 1.023814 4.777513 5.110051 -1.956787 0.910207 -0.250052
-5.664066 47.876091 64.917183 0.038950 -18.556355 -0.018931 15.004265 -3.157988 -3.082632 0.600652 0.380497 -0.399014 11.305086 0.373973 -1.182661 19.972689 -0.198908 0.516763 -0.136113 -0.244626 -0.274935 -0.762905 0.311595 2.489712 4.477979 9.580842 7.947470 -28.290344 0.487765 -50.418037 -23.309704 -4.404497 -18.144365 -5.322157 -7.935842 -7.745744 4.861629 -7.019071 -6.640903 -32.666023 9.033408 53.735325 -17.234922 3.978518 8.381513 -0.846659 4.836760 10.930166 9.233993 -3.344657 -1.459811 -18.924250 0.943976 -5.001943 28.842716 -3.461040 1.100583 -13.743805 -0.978329 5.089571 -4.348288 -1.174039 2.516510 -36.051617 -7.016251 -0.628730 24.785284 2.151772 1.748519 1.519248 4.787009 4.965603 -1.789971 0.765015 -0.296140
-5.923647 47.783306 65.499847 0.042129 -18.776838 -0.013978 15.022411 -2.789289 -2.826169 0.614442 0.329154 -0.346675 11.150470 0.241387 -1.107392 19.835678 -0.272188 0.469694 -0.109378 -0.207992 -0.365984 -0.889195 0.054402 2.285932 4.565849 9.777504 7.894218 -28.161253 0.452263 -50.154659 -23.185213 -4.859258 -17.732204 -4.965598 -7.721527 -8.045236 4.984838 -7.292566 -6.811554 -32.276676 8.633402 53.446564 -17.003443 4.040125 8.202008 -0.610310 4.981778 10.947873 9.473144 -2.824674 -1.262086 -18.239473 0.524672 -5.304147 28.639826 -3.273078 1.034691 -14.267535 -1.280694 4.494810 -4.390248 -1.396017 3.381285 -36.023674 -7.351265 -0.550698 24.401014 1.831465 1.854756 2.032651 4.698478 4.653717 -1.731816 0.795476 -0.462639
-6.182426 47.734955 65.969727 0.035731 -18.763714 -0.015359 15.008414 -2.631109 -2.529801 0.480800 0.232606 -0.385418 11.069969 0.297551 -0.999282 19.876146 -0.308269 0.443864 -0.128966 -0.176836 -0.331141 -0.961087 -0.147100 2.102645 4.637894 10.071795 8.072440 -28.128290 0.202156 -50.152470 -22.999802 -5.184234 -17.264704 -4.651465 -7.686044 -8.135687 5.006886 -7.604966 -6.857111 -31.892433 8.277250 53.087788 -16.418722 3.823465 8.000441 -0.825807 5.278717 10.931009 9.501633 -2.626301 -0.980151 -17.612135 0.209633 -5.434453 28.363890 -3.029181 0.887468 -14.565642 -1.427230 4.167815 -4.313922 -1.665189 3.723547 -35.712067 -7.553909 -0.409594 23.950991 1.556357 1.840680 2.535643 4.551618 3.685307 -1.810048 0.683679 -0.611531
-6.447762 47.627140 66.425400 0.036814 -18.908928 -0.017588 14.954172 -2.324344 -2.195363 0.466593 0.179693 -0.315065 10.890294 0.254750 -0.962776 19.800756 -0.418156 0.395391 -0.076067 -0.153166 -0.336185 -0.826966 -0.353789 1.896686 4.742453 10.249910 8.161913 -28.133932 0.173685 -49.849976 -22.684847 -5.659640 -16.806440 -4.255822 -7.605249 -8.539057 5.137288 -7.838048 -7.083053 -31.460711 7.770882 52.828079 -16.149296 3.794260 7.720957 -0.643268 5.441482 11.037441 9.615138 -2.289274 -0.692827 -16.959352 0.041421 -5.699387 28.226229 -2.836257 0.833760 -15.087014 -1.471585 3.611001 -4.249484 -2.003221 4.394608 -35.697544 -7.816990 -0.333547 24.320339 1.493785 1.663350 2.712262 4.328840 2.615136 -1.818553 0.716864 -0.946265
-6.725350 47.597916 66.866585 0.034149 -18.838600 -0.018168 14.863588 -2.156119 -1.880790 0.375208 0.152148 -0.309568 10.795660 0.218966 -0.926499 19.818468 -0.420755 0.417495 -0.071998 -0.231863 -0.324777 -0.814366 -0.485747 1.745302 4.794717 10.411401 8.367116 -28.110682 0.210275 -49.781006 -22.475246 -5.947159 -16.370800 -3.999677 -7.605139 -8.666485 5.126707 -8.015354 -7.134161 -31.090801 7.384607 52.537319 -15.544678 3.658425 7.339046 -0.792618 5.529132 11.261799 9.630281 -2.073219 -0.416552 -16.438244 -0.077642 -5.782330 27.983711 -2.740130 0.623925 -15.113754 -1.493979 3.403900 -4.404408 -2.242465 4.644893 -35.226639 -7.903808 -0.388336 24.195477 1.422024 1.652010 2.883516 4.096743 1.544050 -1.977885 0.785014 -1.323079
-7.031880 47.551418 67.282631 0.036938 -18.983990 -0.018637 14.721798 -1.793769 -1.543014 0.285534 0.112401 -0.256265 10.671896 0.222697 -0.879447 19.750011 -0.554506 0.335230 -0.093853 -0.186503 -0.292668 -0.891780 -0.654830 1.563750 4.845508 10.422642 8.324163 -28.131489 0.152891 -49.515877 -22.126345 -6.369578 -15.896184 -3.736274 -7.437149 -8.846905 5.197257 -8.144397 -7.252061 -30.883949 6.906547 52.197323 -15.136061 3.562309 6.975898 -0.483236 5.448171 11.321226 9.697913 -1.683991 -0.158644 -15.869410 -0.162923 -5.802118 27.705250 -2.759090 0.578661 -15.101109 -1.573876 2.955825 -4.667628 -2.232133 4.957594 -34.962158 -8.209537 -0.329747 24.458963 1.384494 1.559716 2.807643 3.839959 0.563156 -1.982447 0.839540 -1.590137
